<?xml version="1.0" standalone="no"?>
<!DOCTYPE svg PUBLIC "-//W3C//DTD SVG 20010904//EN"
 "http://www.w3.org/TR/2001/REC-SVG-20010904/DTD/svg10.dtd">
<svg version="1.0" xmlns="http://www.w3.org/2000/svg"
 width="128.000000pt" height="128.000000pt" viewBox="0 0 128.000000 128.000000"
 preserveAspectRatio="xMidYMid meet">

<g transform="translate(0.000000,128.000000) scale(0.100000,-0.100000)"
fill="#000000" stroke="none">
<path d="M536 1258 c-8 -13 -20 -52 -28 -87 -12 -62 -14 -65 -56 -83 l-43 -20
-60 36 c-33 20 -69 36 -80 36 -26 0 -128 -96 -135 -127 -4 -16 5 -42 31 -86
36 -60 37 -63 24 -101 -14 -38 -16 -40 -86 -56 -101 -24 -103 -26 -103 -131 0
-104 4 -109 109 -131 62 -12 65 -14 83 -55 l18 -42 -35 -58 c-19 -32 -35 -64
-35 -71 0 -20 120 -142 139 -142 9 0 42 16 74 35 l58 35 42 -18 c41 -18 43
-21 55 -83 22 -105 27 -109 132 -109 105 0 110 4 132 109 12 62 14 65 56 83
l42 19 59 -35 c32 -20 65 -36 73 -36 21 0 138 123 138 145 0 11 -16 45 -34 75
-33 53 -34 55 -20 90 19 45 18 45 89 59 101 21 105 27 105 131 0 104 -4 110
-105 131 -71 14 -70 14 -89 60 -14 35 -14 37 20 93 19 31 34 66 34 77 0 29
-107 139 -136 139 -13 0 -49 -15 -80 -34 -56 -34 -58 -34 -93 -20 -46 19 -46
18 -60 89 -21 101 -27 105 -131 105 -82 0 -91 -2 -104 -22z m170 -130 l19 -73
70 -34 70 -34 66 36 66 36 31 -32 32 -33 -35 -57 c-19 -32 -35 -62 -35 -66 0
-22 62 -141 77 -149 10 -5 44 -14 76 -21 l57 -12 0 -49 0 -48 -70 -17 c-38 -9
-73 -22 -78 -28 -5 -7 -22 -40 -37 -74 l-28 -63 37 -62 37 -61 -31 -31 -30
-31 -64 34 -64 35 -63 -28 c-35 -16 -70 -34 -77 -41 -7 -6 -20 -42 -28 -79
l-16 -66 -48 0 -48 0 -17 70 c-9 38 -22 73 -28 78 -7 5 -41 22 -76 38 -70 31
-57 33 -154 -24 -27 -16 -28 -16 -59 16 -32 31 -32 32 -16 59 57 97 55 84 24
154 -16 35 -33 69 -38 76 -5 6 -40 19 -78 28 l-70 17 0 48 0 47 72 19 73 19
27 55 c30 62 34 96 15 125 -7 11 -23 36 -35 56 l-22 36 33 31 33 32 57 -35
c32 -19 66 -35 75 -34 9 0 46 15 82 32 l65 32 19 73 19 72 47 0 47 0 19 -72z"/>
<path d="M535 876 c-96 -45 -155 -135 -155 -236 0 -186 198 -315 365 -236 63
29 102 68 131 131 79 167 -50 365 -236 365 -37 0 -72 -8 -105 -24z m206 -80
c115 -76 113 -237 -4 -314 -107 -71 -258 -2 -282 129 -15 80 49 184 127 208
48 15 117 4 159 -23z"/>
</g>
</svg>
