<?xml version="1.0" standalone="no"?>
<!DOCTYPE svg PUBLIC "-//W3C//DTD SVG 20010904//EN"
 "http://www.w3.org/TR/2001/REC-SVG-20010904/DTD/svg10.dtd">
<svg version="1.0" xmlns="http://www.w3.org/2000/svg"
 width="128.000000pt" height="128.000000pt" viewBox="0 0 128.000000 128.000000"
 preserveAspectRatio="xMidYMid meet">

<g transform="translate(0.000000,128.000000) scale(0.100000,-0.100000)"
fill="#000000" stroke="none">
<path d="M536 1258 c-8 -13 -20 -52 -28 -87 -12 -62 -14 -65 -56 -83 l-43 -20
-60 36 c-33 20 -69 36 -80 36 -26 0 -128 -96 -135 -127 -4 -16 5 -42 31 -86
36 -60 37 -63 24 -101 -14 -38 -16 -40 -86 -56 -101 -24 -103 -26 -103 -131 0
-104 4 -109 109 -131 62 -12 65 -14 83 -55 l18 -42 -35 -58 c-19 -32 -35 -64
-35 -71 0 -18 107 -130 132 -138 12 -4 40 7 79 30 l61 36 42 -18 c40 -18 42
-22 54 -83 22 -105 27 -109 132 -109 105 0 110 4 132 109 12 62 14 65 56 83
l42 19 59 -35 c32 -20 65 -36 73 -36 21 0 138 123 138 145 0 11 -16 45 -34 75
-33 53 -34 55 -20 90 19 45 18 45 89 59 101 21 105 27 105 131 0 104 -4 110
-105 131 -71 14 -70 14 -89 60 -14 35 -14 37 20 93 19 31 34 66 34 77 0 29
-107 139 -136 139 -13 0 -49 -15 -80 -34 -56 -34 -58 -34 -93 -20 -46 19 -46
18 -60 89 -21 101 -27 105 -131 105 -82 0 -91 -2 -104 -22z m209 -382 c63 -29
102 -68 131 -131 79 -167 -50 -365 -236 -365 -141 0 -260 119 -260 260 0 141
119 260 260 260 37 0 72 -8 105 -24z"/>
</g>
</svg>
